<svg id="Layer_3" enable-background="new 0 0 64 64" height="40" viewBox="0 0 64 64" width="40" xmlns="http://www.w3.org/2000/svg"><g><path d="m58 62h-52c-2.209 0-4-1.791-4-4v-52c0-2.209 1.791-4 4-4h52c2.209 0 4 1.791 4 4v52c0 2.209-1.791 4-4 4z" fill="#56b4f9"/><path d="m2 6v45.195c2.588.524 5.262.805 8 .805 22.644 0 41-18.804 41-42 0-2.737-.264-5.409-.752-8h-44.248c-2.209 0-4 1.791-4 4z" fill="#78c3fa"/><path d="m15 43h23v-5l11 9-11 9v-5h-23z" fill="#e9edf4"/><g fill="#fbfbfd"><path d="m15 43v8h3.884c6.113-1.384 11.71-4.164 16.462-8z"/><path d="m38 38v2.667c.499-.478.985-.969 1.46-1.472z"/></g><path d="m46 14v4h4v14h4v-14h4v-4z" fill="#e9edf4"/><path d="m50.81 14h-4.81v4h4v1.206c.371-1.7.647-3.436.81-5.206z" fill="#fbfbfd"/><g fill="#e9edf4"><circle cx="8" cy="8" r="2"/><circle cx="8" cy="56" r="2"/><circle cx="56" cy="8" r="2"/><circle cx="56" cy="56" r="2"/></g><path d="m6 14v18h10v-4h-6v-3h4v-4h-4v-3h6v-4z" fill="#fbfbfd"/><path d="m34 14h-5l-2 4-2-4h-5l4.5 9-4.5 9h5l2-4 2 4h5l-4.5-9z" fill="#fbfbfd"/><path d="m38 14h4v18h-4z" fill="#fbfbfd"/></g></svg>