<svg id="Layer_1" enable-background="new 0 0 464 464" height="40" viewBox="0 0 464 464" width="40" xmlns="http://www.w3.org/2000/svg"><path d="m448.96 85.06c8.61-1.43 15.04-8.67 15.04-17.4v-50.07c0-9.71-7.88-17.59-17.59-17.59h-428.82c-9.71 0-17.59 7.88-17.59 17.59v428.82c0 9.71 7.88 17.59 17.59 17.59h196.82c9.71 0 17.59-7.88 17.59-17.59v-50.06c0-8.73 6.43-15.98 15.04-17.41 14.72-2.43 26.74-15.17 26.74-31.49 0-16.34-12.03-29.05-26.74-31.49-8.61-1.43-15.04-8.67-15.04-17.4v-66.56h66.55c8.73 0 15.98-6.43 17.41-15.04 2.43-14.72 15.17-26.74 31.49-26.74 16.34 0 29.05 12.03 31.49 26.74 1.43 8.61 8.67 15.04 17.4 15.04h50.07c9.71 0 17.59-7.88 17.59-17.59v-48.96c0-8.73-6.43-15.98-15.04-17.41-14.72-2.43-26.74-15.17-26.74-31.49 0-16.34 12.03-29.05 26.74-31.49z" fill="#9cbcff"/><path d="m422.22 116.55c0 16.32 12.02 29.06 26.74 31.49 8.61 1.43 15.04 8.68 15.04 17.41v48.96c0 9.715-7.875 17.59-17.59 17.59h-50.07c-8.73 0-15.97-6.43-17.4-15.04-2.44-14.71-15.15-26.74-31.49-26.74-16.32 0-29.06 12.021-31.49 26.74-1.43 8.61-8.68 15.04-17.41 15.04h-39.45c48.682-63.155 66.336-144.947 49.241-222.307-1.101-4.98 2.711-9.693 7.811-9.693h130.258c9.715 0 17.59 7.875 17.59 17.59v50.07c0 8.73-6.43 15.97-15.04 17.4-14.71 2.44-26.74 15.15-26.74 31.49z" fill="#80aaff"/><path d="m247.04 315.96c14.71 2.44 26.74 15.15 26.74 31.49 0 16.32-12.02 29.06-26.74 31.49-8.61 1.43-15.04 8.68-15.04 17.41v50.06c0 9.71-7.88 17.59-17.59 17.59h-196.82c-9.71 0-17.59-7.88-17.59-17.59v-214.41h67.65c8.73 0 15.98 6.43 17.41 15.04 2.43 14.72 15.17 26.74 31.49 26.74 16.34 0 29.05-12.03 31.49-26.74 1.43-8.61 8.67-15.04 17.4-15.04h66.56v66.56c0 8.73 6.43 15.97 15.04 17.4z" fill="#daffbf"/><path d="m232 165.45v66.55h-66.56c-8.73 0-15.97 6.43-17.4 15.04-2.44 14.71-15.15 26.74-31.49 26.74-16.32 0-29.06-12.02-31.49-26.74-1.43-8.61-8.68-15.04-17.41-15.04h-67.65v-214.41c0-9.71 7.88-17.59 17.59-17.59h214.41v67.66c0 8.73-6.43 15.97-15.04 17.4-14.71 2.44-26.74 15.15-26.74 31.49 0 16.32 12.02 29.06 26.74 31.49 8.61 1.43 15.04 8.68 15.04 17.41z" fill="#fff0a6"/><path d="m273.78 347.45c0 16.32-12.02 29.06-26.74 31.49-8.61 1.43-15.04 8.68-15.04 17.41v50.06c0 9.715-7.875 17.59-17.59 17.59h-196.82c-9.715 0-17.59-7.875-17.59-17.59v-105.087c0-4.833 4.258-8.6 9.044-7.931 80.697 11.289 163.307-14.419 222.956-71.292v36.46c0 8.73 6.43 15.97 15.04 17.4 14.71 2.44 26.74 15.15 26.74 31.49z" fill="#befa91"/><path d="m452.88 257.97c7.85 5.73 9.57 16.74 3.85 24.58l-29.5 40.45c-5.15 7.05-14.61 9.12-22.41 5.2-13.33-6.71-30.55-3.5-40.17 9.68-9.63 13.21-7.39 30.57 3.05 41.2 6.12 6.23 7.04 15.87 1.9 22.93l-28.86 39.56c-5.72 7.85-16.73 9.57-24.58 3.85l-39.56-28.86c-7.05-5.14-16.69-4.22-22.92 1.9-10.64 10.45-28.01 12.66-41.2 3.04-13.21-9.63-16.38-26.84-9.69-40.16 3.92-7.8 1.86-17.26-5.19-22.41l-40.45-29.5c-7.85-5.73-9.57-16.73-3.85-24.58l110.8-151.91c8.59-11.77 25.11-14.35 36.88-5.77z" fill="#ff8c95"/><path d="m456.73 282.55-29.5 40.45c-5.15 7.05-14.61 9.12-22.41 5.2-13.33-6.71-30.55-3.5-40.17 9.68-9.63 13.21-7.39 30.57 3.05 41.2 6.12 6.23 7.04 15.87 1.9 22.93l-28.86 39.56c-5.72 7.85-16.73 9.57-24.58 3.85l-39.56-28.86c-7.05-5.14-16.69-4.22-22.92 1.9-10.64 10.45-28.01 12.66-41.2 3.04-13.21-9.63-16.38-26.84-9.69-40.16.79-1.57 1.337-3.204 1.648-4.857.547-2.91 2.713-5.242 5.549-6.095 82.117-24.708 123.339-102.065 120.251-185.791-.247-6.706 7.284-10.778 12.705-6.824l109.937 80.197c7.85 5.73 9.57 16.74 3.85 24.58z" fill="#ff6d7a"/></svg>