<?xml version="1.0"?>
<svg xmlns="http://www.w3.org/2000/svg" xmlns:xlink="http://www.w3.org/1999/xlink" xmlns:svgjs="http://svgjs.com/svgjs" version="1.1" width="20" height="20" x="0" y="0" viewBox="0 0 612 612" style="enable-background:new 0 0 512 512" xml:space="preserve" class=""><g>
<g xmlns="http://www.w3.org/2000/svg">
	<path d="M306,328.667c90.759,0,164.333-73.575,164.333-164.333S396.759,0,306,0c-90.759,0-164.333,73.575-164.333,164.333   S215.241,328.667,306,328.667z M383.878,229.376c-7.475,24.718-39.498,43.298-77.878,43.298c-38.38,0-70.403-18.581-77.878-43.298   H383.878z M583.667,498.667v54.169c0,8.029-5.912,17.359-13.246,20.624C541.993,586.109,464.45,612,306,612   c-158.451,0-235.992-25.891-264.42-38.54c-7.335-3.265-13.246-12.595-13.246-20.624v-54.169   c0-81.174,61.804-148.515,140.666-157.533c2.396-0.275,5.949,0.751,7.903,2.165c36.361,26.324,80.877,42.035,129.097,42.035   s92.738-15.711,129.097-42.035c1.955-1.414,5.508-2.44,7.904-2.165C521.862,350.152,583.667,417.493,583.667,498.667z" fill="#424242" data-original="#000000" style="" class=""/>
</g>
<g xmlns="http://www.w3.org/2000/svg">
</g>
<g xmlns="http://www.w3.org/2000/svg">
</g>
<g xmlns="http://www.w3.org/2000/svg">
</g>
<g xmlns="http://www.w3.org/2000/svg">
</g>
<g xmlns="http://www.w3.org/2000/svg">
</g>
<g xmlns="http://www.w3.org/2000/svg">
</g>
<g xmlns="http://www.w3.org/2000/svg">
</g>
<g xmlns="http://www.w3.org/2000/svg">
</g>
<g xmlns="http://www.w3.org/2000/svg">
</g>
<g xmlns="http://www.w3.org/2000/svg">
</g>
<g xmlns="http://www.w3.org/2000/svg">
</g>
<g xmlns="http://www.w3.org/2000/svg">
</g>
<g xmlns="http://www.w3.org/2000/svg">
</g>
<g xmlns="http://www.w3.org/2000/svg">
</g>
<g xmlns="http://www.w3.org/2000/svg">
</g>
</g></svg>
